<?xml version="1.0" encoding="utf-8"?>
<!-- Generator: Fusion 360, Shaper Origin Export Add-In, Version 1.4.1  -->
<svg enable-background="new 0 0 44.07 29.15" height="29.15cm" shaper:fusionaddin="version:1.4.1" version="1.1" viewBox="0 0 44.07 29.15" width="44.07cm" x="0cm" xml:space="preserve" xmlns="http://www.w3.org/2000/svg" xmlns:shaper="http://www.shapertools.com/namespaces/shaper" xmlns:xlink="http://www.w3.org/1999/xlink" y="0cm"><g id="Body_Body9"><path d="M163.06,14.66 L163.06,8.96 162.76,8.96 162.76,7.96 163.06,7.96 163.06,1.76 163.91,1.76 163.91,1.46 164.91,1.46 164.91,1.76 165.76,1.76 165.76,14.66 164.91,14.66 164.91,14.96 163.91,14.96 163.91,14.66 163.06,14.66z" fill="rgb(0,0,0)" shaper:cutDepth="0.003175" shaper:pathType="exterior" transform="matrix(1,0,0,-1,-126.77,30.21)" vector-effect="non-scaling-stroke" /><path d="M163.835,13.46 a0.425,0.425 0 1,1 0.85,0 a0.425,0.425 0 1,1 -0.85,0z" fill="rgb(255,255,255)" shaper:cutDepth="0.003175" shaper:pathType="interior" stroke="rgb(0,0,0)" stroke-width="2" transform="matrix(1,0,0,-1,-126.77,30.21)" vector-effect="non-scaling-stroke" /><path d="M163.835,2.96 a0.425,0.425 0 1,1 0.85,0 a0.425,0.425 0 1,1 -0.85,0z" fill="rgb(255,255,255)" shaper:cutDepth="0.003175" shaper:pathType="interior" stroke="rgb(0,0,0)" stroke-width="2" transform="matrix(1,0,0,-1,-126.77,30.21)" vector-effect="non-scaling-stroke" /></g><g id="Body_Body7"><path d="M132.32,1.06 L131.32,1.06 131.32,1.36 129.32,1.36 129.32,1.06 128.32,1.06 128.32,1.36 127.37,1.36 127.37,6.81 126.77,6.81 126.77,9.31 127.37,9.31 127.37,14.26 129.32,14.26 129.32,14.56 130.32,14.56 130.32,14.26 134.32,14.26 134.32,14.56 135.32,14.56 135.32,14.26 139.32,14.26 139.32,14.56 140.32,14.56 140.32,14.26 142.27,14.26 142.27,9.31 142.87,9.31 142.87,6.81 142.27,6.81 142.27,1.36 141.32,1.36 141.32,1.06 140.32,1.06 140.32,1.36 138.32,1.36 138.32,1.06 137.32,1.06 137.32,1.36 135.32,1.36 135.32,1.06 134.32,1.06 134.32,1.36 132.32,1.36 132.32,1.06z" fill="rgb(0,0,0)" shaper:cutDepth="0.003175" shaper:pathType="exterior" transform="matrix(1,0,0,-1,-126.77,30.21)" vector-effect="non-scaling-stroke" /><path d="M127.67,7.56 L127.37,7.56 127.37,8.56 127.67,8.56 127.67,7.56z" fill="rgb(255,255,255)" shaper:cutDepth="0.003175" shaper:pathType="interior" stroke="rgb(0,0,0)" stroke-width="2" transform="matrix(1,0,0,-1,-126.77,30.21)" vector-effect="non-scaling-stroke" /><path d="M141.97,8.56 L142.27,8.56 142.27,7.56 141.97,7.56 141.97,8.56z" fill="rgb(255,255,255)" shaper:cutDepth="0.003175" shaper:pathType="interior" stroke="rgb(0,0,0)" stroke-width="2" transform="matrix(1,0,0,-1,-126.77,30.21)" vector-effect="non-scaling-stroke" /></g><g id="Body_Body8"><path d="M150.1,1.06 L149.1,1.06 149.1,1.36 147.1,1.36 147.1,1.06 146.1,1.06 146.1,1.36 145.15,1.36 145.15,6.81 144.55,6.81 144.55,9.31 145.15,9.31 145.15,14.26 147.1,14.26 147.1,14.56 148.1,14.56 148.1,14.26 152.1,14.26 152.1,14.56 153.1,14.56 153.1,14.26 157.1,14.26 157.1,14.56 158.1,14.56 158.1,14.26 160.05,14.26 160.05,9.31 160.65,9.31 160.65,6.81 160.05,6.81 160.05,1.36 159.1,1.36 159.1,1.06 158.1,1.06 158.1,1.36 156.1,1.36 156.1,1.06 155.1,1.06 155.1,1.36 153.1,1.36 153.1,1.06 152.1,1.06 152.1,1.36 150.1,1.36 150.1,1.06z" fill="rgb(0,0,0)" shaper:cutDepth="0.003175" shaper:pathType="exterior" transform="matrix(1,0,0,-1,-126.77,30.21)" vector-effect="non-scaling-stroke" /><path d="M145.45,7.56 L145.15,7.56 145.15,8.56 145.45,8.56 145.45,7.56z" fill="rgb(255,255,255)" shaper:cutDepth="0.003175" shaper:pathType="interior" stroke="rgb(0,0,0)" stroke-width="2" transform="matrix(1,0,0,-1,-126.77,30.21)" vector-effect="non-scaling-stroke" /><path d="M159.75,8.56 L160.05,8.56 160.05,7.56 159.75,7.56 159.75,8.56z" fill="rgb(255,255,255)" shaper:cutDepth="0.003175" shaper:pathType="interior" stroke="rgb(0,0,0)" stroke-width="2" transform="matrix(1,0,0,-1,-126.77,30.21)" vector-effect="non-scaling-stroke" /></g><g id="Body_Body18"><path d="M166.18,25.82 a2,2 0 1,1 4,0 a2,2 0 1,1 -4,0z" fill="rgb(0,0,0)" shaper:cutDepth="0.003175" shaper:pathType="exterior" transform="matrix(1,0,0,-1,-126.77,30.21)" vector-effect="non-scaling-stroke" /><path d="M167.17,25.82 a1.01,1.01 0 1,1 2.02,0 a1.01,1.01 0 1,1 -2.02,0z" fill="rgb(255,255,255)" shaper:cutDepth="0.003175" shaper:pathType="interior" stroke="rgb(0,0,0)" stroke-width="2" transform="matrix(1,0,0,-1,-126.77,30.21)" vector-effect="non-scaling-stroke" /></g><g id="Body_Body10"><path d="M168.14,14.66 L168.14,8.96 167.84,8.96 167.84,7.96 168.14,7.96 168.14,1.76 168.99,1.76 168.99,1.46 169.99,1.46 169.99,1.76 170.84,1.76 170.84,14.66 169.99,14.66 169.99,14.96 168.99,14.96 168.99,14.66 168.14,14.66z" fill="rgb(0,0,0)" shaper:cutDepth="0.003175" shaper:pathType="exterior" transform="matrix(1,0,0,-1,-126.77,30.21)" vector-effect="non-scaling-stroke" /><path d="M168.915,13.46 a0.425,0.425 0 1,1 0.85,0 a0.425,0.425 0 1,1 -0.85,0z" fill="rgb(255,255,255)" shaper:cutDepth="0.003175" shaper:pathType="interior" stroke="rgb(0,0,0)" stroke-width="2" transform="matrix(1,0,0,-1,-126.77,30.21)" vector-effect="non-scaling-stroke" /><path d="M168.915,2.96 a0.425,0.425 0 1,1 0.85,0 a0.425,0.425 0 1,1 -0.85,0z" fill="rgb(255,255,255)" shaper:cutDepth="0.003175" shaper:pathType="interior" stroke="rgb(0,0,0)" stroke-width="2" transform="matrix(1,0,0,-1,-126.77,30.21)" vector-effect="non-scaling-stroke" /></g><g id="Body_Body13"><path d="M145.74,15.31 L145.74,16.26 145.44,16.26 145.44,17.26 145.74,17.26 145.74,19.26 145.44,19.26 145.44,20.26 145.74,20.26 145.74,22.26 145.44,22.26 145.44,23.26 145.74,23.26 145.74,25.26 145.44,25.26 145.44,26.26 145.74,26.26 145.74,28.26 145.44,28.26 145.44,29.26 145.74,29.26 145.74,30.21 144.59,30.21 144.59,29.91 143.59,29.91 143.59,30.21 141.6399996,30.21 141.6399996,15.31 143.59,15.31 143.59,15.61 144.59,15.61 144.59,15.31 145.74,15.31z" fill="rgb(0,0,0)" shaper:cutDepth="0.003175" shaper:pathType="exterior" transform="matrix(1,0,0,-1,-126.77,30.21)" vector-effect="non-scaling-stroke" /></g><g id="Body_Body11"><path d="M132.36,30.21 L130.91,30.21 130.91,29.91 129.91,29.91 129.91,30.21 129.06,30.21 129.06,15.31 129.91,15.31 129.91,15.61 130.91,15.61 130.91,15.31 132.36,15.31 132.36,30.21z" fill="rgb(0,0,0)" shaper:cutDepth="0.003175" shaper:pathType="exterior" transform="matrix(1,0,0,-1,-126.77,30.21)" vector-effect="non-scaling-stroke" /><path d="M131.76,29.26 L131.76,28.26 132.06,28.26 132.06,29.26 131.76,29.26z" fill="rgb(255,255,255)" shaper:cutDepth="0.003175" shaper:pathType="interior" stroke="rgb(0,0,0)" stroke-width="2" transform="matrix(1,0,0,-1,-126.77,30.21)" vector-effect="non-scaling-stroke" /><path d="M131.76,26.26 L131.76,25.26 132.06,25.26 132.06,26.26 131.76,26.26z" fill="rgb(255,255,255)" shaper:cutDepth="0.003175" shaper:pathType="interior" stroke="rgb(0,0,0)" stroke-width="2" transform="matrix(1,0,0,-1,-126.77,30.21)" vector-effect="non-scaling-stroke" /><path d="M131.76,23.26 L131.76,22.26 132.06,22.26 132.06,23.26 131.76,23.26z" fill="rgb(255,255,255)" shaper:cutDepth="0.003175" shaper:pathType="interior" stroke="rgb(0,0,0)" stroke-width="2" transform="matrix(1,0,0,-1,-126.77,30.21)" vector-effect="non-scaling-stroke" /><path d="M131.76,20.26 L131.76,19.26 132.06,19.26 132.06,20.26 131.76,20.26z" fill="rgb(255,255,255)" shaper:cutDepth="0.003175" shaper:pathType="interior" stroke="rgb(0,0,0)" stroke-width="2" transform="matrix(1,0,0,-1,-126.77,30.21)" vector-effect="non-scaling-stroke" /><path d="M131.76,17.26 L131.76,16.26 132.06,16.26 132.06,17.26 131.76,17.26z" fill="rgb(255,255,255)" shaper:cutDepth="0.003175" shaper:pathType="interior" stroke="rgb(0,0,0)" stroke-width="2" transform="matrix(1,0,0,-1,-126.77,30.21)" vector-effect="non-scaling-stroke" /></g><g id="Body_Body15"><path d="M165.2,16.8 L165.2,23 165.5,23 165.5,24 165.2,24 165.2,29.7 164.35,29.7 164.35,30 163.35,30 163.35,29.7 161.3999996,29.7 161.3999996,16.8 163.35,16.8 163.35,16.5 164.35,16.5 164.35,16.8 165.2,16.8z" fill="rgb(0,0,0)" shaper:cutDepth="0.003175" shaper:pathType="exterior" transform="matrix(1,0,0,-1,-126.77,30.21)" vector-effect="non-scaling-stroke" /><path d="M162.475,28.5 a0.425,0.425 0 1,1 0.85,0 a0.425,0.425 0 1,1 -0.85,0z" fill="rgb(255,255,255)" shaper:cutDepth="0.003175" shaper:pathType="interior" stroke="rgb(0,0,0)" stroke-width="2" transform="matrix(1,0,0,-1,-126.77,30.21)" vector-effect="non-scaling-stroke" /><path d="M162.475,18 a0.425,0.425 0 1,1 0.85,0 a0.425,0.425 0 1,1 -0.85,0z" fill="rgb(255,255,255)" shaper:cutDepth="0.003175" shaper:pathType="interior" stroke="rgb(0,0,0)" stroke-width="2" transform="matrix(1,0,0,-1,-126.77,30.21)" vector-effect="non-scaling-stroke" /></g><g id="Body_Body12"><path d="M136.35,15.31 L136.35,15.61 137.35,15.61 137.35,15.31 138.5,15.31 138.5,17.26 138.2,17.26 138.2,18.26 138.5,18.26 138.5,22.26 138.2,22.26 138.2,23.26 138.5,23.26 138.5,27.26 138.2,27.26 138.2,28.26 138.5,28.26 138.5,30.21 137.35,30.21 137.35,29.91 136.35,29.91 136.35,30.21 135.5,30.21 135.5,15.31 136.35,15.31z" fill="rgb(0,0,0)" shaper:cutDepth="0.003175" shaper:pathType="exterior" transform="matrix(1,0,0,-1,-126.77,30.21)" vector-effect="non-scaling-stroke" /></g><g id="Body_Body14"><path d="M151.73,15.51 L151.73,15.21 152.88,15.21 152.88,17.16 152.58,17.16 152.58,18.16 152.88,18.16 152.88,22.16 152.58,22.16 152.58,23.16 152.88,23.16 152.88,27.16 152.58,27.16 152.58,28.16 152.88,28.16 152.88,30.11 151.73,30.11 151.73,29.81 150.73,29.81 150.73,30.11 148.7799996,30.11 148.7799996,15.21 150.73,15.21 150.73,15.51 151.73,15.51z" fill="rgb(0,0,0)" shaper:cutDepth="0.003175" shaper:pathType="exterior" transform="matrix(1,0,0,-1,-126.77,30.21)" vector-effect="non-scaling-stroke" /></g><g id="Body_Body17"><path d="M166.18,18.2 a2,2 0 1,1 4,0 a2,2 0 1,1 -4,0z" fill="rgb(0,0,0)" shaper:cutDepth="0.003175" shaper:pathType="exterior" transform="matrix(1,0,0,-1,-126.77,30.21)" vector-effect="non-scaling-stroke" /><path d="M167.17,18.2 a1.01,1.01 0 1,1 2.02,0 a1.01,1.01 0 1,1 -2.02,0z" fill="rgb(255,255,255)" shaper:cutDepth="0.003175" shaper:pathType="interior" stroke="rgb(0,0,0)" stroke-width="2" transform="matrix(1,0,0,-1,-126.77,30.21)" vector-effect="non-scaling-stroke" /></g><g id="Body_Body16"><path d="M160.12,16.8 L160.12,23 160.42,23 160.42,24 160.12,24 160.12,29.7 159.27,29.7 159.27,30 158.27,30 158.27,29.7 156.3199996,29.7 156.3199996,16.8 158.27,16.8 158.27,16.5 159.27,16.5 159.27,16.8 160.12,16.8z" fill="rgb(0,0,0)" shaper:cutDepth="0.003175" shaper:pathType="exterior" transform="matrix(1,0,0,-1,-126.77,30.21)" vector-effect="non-scaling-stroke" /><path d="M157.395,28.5 a0.425,0.425 0 1,1 0.85,0 a0.425,0.425 0 1,1 -0.85,0z" fill="rgb(255,255,255)" shaper:cutDepth="0.003175" shaper:pathType="interior" stroke="rgb(0,0,0)" stroke-width="2" transform="matrix(1,0,0,-1,-126.77,30.21)" vector-effect="non-scaling-stroke" /><path d="M157.395,18 a0.425,0.425 0 1,1 0.85,0 a0.425,0.425 0 1,1 -0.85,0z" fill="rgb(255,255,255)" shaper:cutDepth="0.003175" shaper:pathType="interior" stroke="rgb(0,0,0)" stroke-width="2" transform="matrix(1,0,0,-1,-126.77,30.21)" vector-effect="non-scaling-stroke" /></g></svg>